<mxfile host="Electron" agent="Mozilla/5.0 (Windows NT 10.0; Win64; x64) AppleWebKit/537.36 (KHTML, like Gecko) draw.io/27.0.9 Chrome/134.0.6998.205 Electron/35.4.0 Safari/537.36" version="27.0.9">
  <diagram name="Sida-1" id="t9KWanAmZFUYflOlihMm">
    <mxGraphModel dx="1186" dy="542" grid="0" gridSize="10" guides="1" tooltips="1" connect="1" arrows="1" fold="1" page="0" pageScale="1" pageWidth="827" pageHeight="1169" math="0" shadow="0">
      <root>
        <mxCell id="0" />
        <mxCell id="1" parent="0" />
        <mxCell id="rYKpvPcKb7zvsIVrGrCI-1" value="&lt;h1 style=&quot;margin-top: 0px;&quot;&gt;T.ex NLA-artikeln&lt;/h1&gt;&lt;p&gt;- Måste börja med en Vision. Vad är det vi skall göra. Roslagsvatten o ngt som står i mailtråden kring förbättring av ngnting vad det nu var.&lt;/p&gt;&lt;p&gt;- Där ngnstans börjar då da Mechanics. Utifrån designsituationen vi har så långt så finns i princip bara Boards, Helpers, Rules. När man tittar igenom dessa så framträder efter judgement att det nog är bra att&amp;nbsp;&lt;/p&gt;&lt;p&gt;- bygga något&lt;/p&gt;&lt;p&gt;- få en vision på plats om vad det är vi skall göra o en strategi(starteginivå) hur vi skall nå dit&lt;/p&gt;&lt;p&gt;- att det behövs en product av ngt slag o att denna behöver &#39;discovery&#39; o att det verkar vara &#39;problem o solution&#39; på samma gång&lt;/p&gt;&lt;p&gt;- att börja bygga ngt o reflektera över vad det blir o om det är i linje m visionen&lt;/p&gt;&lt;p&gt;So, we start to build, gather the team that exist so far, find a place to work, a template suggests starting out with foamboards, printouts from drawio o Visio, permanent markers and blank playing cards, meeples, post-its&#39; Build. Reflect over the questions that immediatly appear, what to build, for whom etc. Go back to &#39;ytorna&#39; and find out how to establish the repos, the &#39;Design Situation&#39;-ytorna which is stakeholders etc. and &#39;AlltsomBehöverBli&#39; which is problem and solution, simple formats like Word or .md-files, drawio and Visio. Write down what we know in simple design.log form.&lt;/p&gt;&lt;p&gt;So the circus is igång.&lt;/p&gt;&lt;p&gt;Lean Startup says to specify, define learning, then build and experiment. Aristoteles doesnt seem to agree, instead knowledge is both in thinkng/theory, in the planning and in the making - it is is no difference in level, value, only re-framings. So instaed, work, build and do the opposite, find a Rule, a Helper or a Board or something else that 1: Identify need for a pause for reflection. 2: Helps find out where we are, what is theorized, what is though/enacted, what is built and what are the experiences from this.&amp;nbsp;&lt;/p&gt;" style="text;html=1;whiteSpace=wrap;overflow=hidden;rounded=0;" vertex="1" parent="1">
          <mxGeometry x="-115" y="31" width="553" height="582" as="geometry" />
        </mxCell>
      </root>
    </mxGraphModel>
  </diagram>
</mxfile>
